<svg width="147" height="25" viewBox="0 0 147 25" fill="none" xmlns="http://www.w3.org/2000/svg">
<path d="M10.0312 7.09375V10.2812H0.1875V7.09375H10.0312ZM2.625 2.92188H7.125V18.9062C7.125 19.3958 7.1875 19.7708 7.3125 20.0312C7.44792 20.2917 7.64583 20.474 7.90625 20.5781C8.16667 20.6719 8.49479 20.7188 8.89062 20.7188C9.17188 20.7188 9.42188 20.7083 9.64062 20.6875C9.86979 20.6562 10.0625 20.625 10.2188 20.5938L10.2344 23.9062C9.84896 24.0312 9.43229 24.1302 8.98438 24.2031C8.53646 24.276 8.04167 24.3125 7.5 24.3125C6.51042 24.3125 5.64583 24.151 4.90625 23.8281C4.17708 23.4948 3.61458 22.9635 3.21875 22.2344C2.82292 21.5052 2.625 20.5469 2.625 19.3594V2.92188ZM20.375 24.3125C19.0625 24.3125 17.8854 24.1042 16.8438 23.6875C15.8021 23.2604 14.9167 22.6719 14.1875 21.9219C13.4688 21.1719 12.9167 20.3021 12.5312 19.3125C12.1458 18.3125 11.9531 17.25 11.9531 16.125V15.5C11.9531 14.2188 12.1354 13.0469 12.5 11.9844C12.8646 10.9219 13.3854 10 14.0625 9.21875C14.75 8.4375 15.5833 7.83854 16.5625 7.42188C17.5417 6.99479 18.6458 6.78125 19.875 6.78125C21.0729 6.78125 22.1354 6.97917 23.0625 7.375C23.9896 7.77083 24.7656 8.33333 25.3906 9.0625C26.026 9.79167 26.5052 10.6667 26.8281 11.6875C27.151 12.6979 27.3125 13.8229 27.3125 15.0625V16.9375H13.875V13.9375H22.8906V13.5938C22.8906 12.9688 22.776 12.4115 22.5469 11.9219C22.3281 11.4219 21.9948 11.026 21.5469 10.7344C21.099 10.4427 20.526 10.2969 19.8281 10.2969C19.2344 10.2969 18.724 10.4271 18.2969 10.6875C17.8698 10.9479 17.5208 11.3125 17.25 11.7812C16.9896 12.25 16.7917 12.8021 16.6562 13.4375C16.5312 14.0625 16.4688 14.75 16.4688 15.5V16.125C16.4688 16.8021 16.5625 17.4271 16.75 18C16.9479 18.5729 17.224 19.0677 17.5781 19.4844C17.9427 19.901 18.3802 20.224 18.8906 20.4531C19.4115 20.6823 20 20.7969 20.6562 20.7969C21.4688 20.7969 22.224 20.6406 22.9219 20.3281C23.6302 20.0052 24.2396 19.5208 24.75 18.875L26.9375 21.25C26.5833 21.7604 26.099 22.25 25.4844 22.7188C24.8802 23.1875 24.151 23.5729 23.2969 23.875C22.4427 24.1667 21.4688 24.3125 20.375 24.3125ZM36.8594 20.7969C37.4115 20.7969 37.901 20.6927 38.3281 20.4844C38.7552 20.2656 39.0885 19.9635 39.3281 19.5781C39.5781 19.1823 39.7083 18.7188 39.7188 18.1875H43.9531C43.9427 19.375 43.625 20.4323 43 21.3594C42.375 22.276 41.5365 23 40.4844 23.5312C39.4323 24.0521 38.2552 24.3125 36.9531 24.3125C35.6406 24.3125 34.4948 24.0938 33.5156 23.6562C32.5469 23.2188 31.7396 22.6146 31.0938 21.8438C30.4479 21.0625 29.9635 20.1562 29.6406 19.125C29.3177 18.0833 29.1562 16.9688 29.1562 15.7812V15.3281C29.1562 14.1302 29.3177 13.0156 29.6406 11.9844C29.9635 10.9427 30.4479 10.0365 31.0938 9.26562C31.7396 8.48438 32.5469 7.875 33.5156 7.4375C34.4844 7 35.6198 6.78125 36.9219 6.78125C38.3073 6.78125 39.5208 7.04688 40.5625 7.57812C41.6146 8.10938 42.4375 8.86979 43.0312 9.85938C43.6354 10.8385 43.9427 12 43.9531 13.3438H39.7188C39.7083 12.7812 39.5885 12.2708 39.3594 11.8125C39.1406 11.3542 38.8177 10.9896 38.3906 10.7188C37.974 10.4375 37.4583 10.2969 36.8438 10.2969C36.1875 10.2969 35.651 10.4375 35.2344 10.7188C34.8177 10.9896 34.4948 11.3646 34.2656 11.8438C34.0365 12.3125 33.875 12.849 33.7812 13.4531C33.6979 14.0469 33.6562 14.6719 33.6562 15.3281V15.7812C33.6562 16.4375 33.6979 17.0677 33.7812 17.6719C33.8646 18.276 34.0208 18.8125 34.25 19.2812C34.4896 19.75 34.8177 20.1198 35.2344 20.3906C35.651 20.6615 36.1927 20.7969 36.8594 20.7969ZM50.9531 0V24H46.4531V0H50.9531ZM50.3125 14.9531H49.0781C49.0885 13.776 49.2448 12.6927 49.5469 11.7031C49.849 10.7031 50.2812 9.83854 50.8438 9.10938C51.4062 8.36979 52.0781 7.79688 52.8594 7.39062C53.651 6.98438 54.526 6.78125 55.4844 6.78125C56.3177 6.78125 57.0729 6.90104 57.75 7.14062C58.4375 7.36979 59.026 7.74479 59.5156 8.26562C60.0156 8.77604 60.401 9.44792 60.6719 10.2812C60.9427 11.1146 61.0781 12.125 61.0781 13.3125V24H56.5469V13.2812C56.5469 12.5312 56.4375 11.9427 56.2188 11.5156C56.0104 11.0781 55.7031 10.7708 55.2969 10.5938C54.901 10.4062 54.4115 10.3125 53.8281 10.3125C53.1823 10.3125 52.6302 10.4323 52.1719 10.6719C51.724 10.9115 51.3646 11.2448 51.0938 11.6719C50.8229 12.0885 50.625 12.5781 50.5 13.1406C50.375 13.7031 50.3125 14.3073 50.3125 14.9531ZM64.7188 21.8281C64.7188 21.1615 64.9479 20.6042 65.4062 20.1562C65.875 19.7083 66.4948 19.4844 67.2656 19.4844C68.0365 19.4844 68.651 19.7083 69.1094 20.1562C69.5781 20.6042 69.8125 21.1615 69.8125 21.8281C69.8125 22.4948 69.5781 23.0521 69.1094 23.5C68.651 23.9479 68.0365 24.1719 67.2656 24.1719C66.4948 24.1719 65.875 23.9479 65.4062 23.5C64.9479 23.0521 64.7188 22.4948 64.7188 21.8281Z" fill="#61DCFB"/>
<path d="M78.1875 10.7031V24H73.6875V7.09375H77.9062L78.1875 10.7031ZM77.5312 14.9531H76.3125C76.3125 13.7031 76.474 12.5781 76.7969 11.5781C77.1198 10.5677 77.5729 9.70833 78.1562 9C78.7396 8.28125 79.4323 7.73438 80.2344 7.35938C81.0469 6.97396 81.9531 6.78125 82.9531 6.78125C83.7448 6.78125 84.4688 6.89583 85.125 7.125C85.7812 7.35417 86.3438 7.71875 86.8125 8.21875C87.2917 8.71875 87.6562 9.38021 87.9062 10.2031C88.1667 11.026 88.2969 12.0312 88.2969 13.2188V24H83.7656V13.2031C83.7656 12.4531 83.6615 11.8698 83.4531 11.4531C83.2448 11.0365 82.9375 10.7448 82.5312 10.5781C82.1354 10.401 81.6458 10.3125 81.0625 10.3125C80.4583 10.3125 79.9323 10.4323 79.4844 10.6719C79.0469 10.9115 78.6823 11.2448 78.3906 11.6719C78.1094 12.0885 77.8958 12.5781 77.75 13.1406C77.6042 13.7031 77.5312 14.3073 77.5312 14.9531ZM99.5 24.3125C98.1875 24.3125 97.0104 24.1042 95.9688 23.6875C94.9271 23.2604 94.0417 22.6719 93.3125 21.9219C92.5938 21.1719 92.0417 20.3021 91.6562 19.3125C91.2708 18.3125 91.0781 17.25 91.0781 16.125V15.5C91.0781 14.2188 91.2604 13.0469 91.625 11.9844C91.9896 10.9219 92.5104 10 93.1875 9.21875C93.875 8.4375 94.7083 7.83854 95.6875 7.42188C96.6667 6.99479 97.7708 6.78125 99 6.78125C100.198 6.78125 101.26 6.97917 102.188 7.375C103.115 7.77083 103.891 8.33333 104.516 9.0625C105.151 9.79167 105.63 10.6667 105.953 11.6875C106.276 12.6979 106.438 13.8229 106.438 15.0625V16.9375H93V13.9375H102.016V13.5938C102.016 12.9688 101.901 12.4115 101.672 11.9219C101.453 11.4219 101.12 11.026 100.672 10.7344C100.224 10.4427 99.651 10.2969 98.9531 10.2969C98.3594 10.2969 97.849 10.4271 97.4219 10.6875C96.9948 10.9479 96.6458 11.3125 96.375 11.7812C96.1146 12.25 95.9167 12.8021 95.7812 13.4375C95.6562 14.0625 95.5938 14.75 95.5938 15.5V16.125C95.5938 16.8021 95.6875 17.4271 95.875 18C96.0729 18.5729 96.349 19.0677 96.7031 19.4844C97.0677 19.901 97.5052 20.224 98.0156 20.4531C98.5365 20.6823 99.125 20.7969 99.7812 20.7969C100.594 20.7969 101.349 20.6406 102.047 20.3281C102.755 20.0052 103.365 19.5208 103.875 18.875L106.062 21.25C105.708 21.7604 105.224 22.25 104.609 22.7188C104.005 23.1875 103.276 23.5729 102.422 23.875C101.568 24.1667 100.594 24.3125 99.5 24.3125ZM113.828 19.625L117.344 7.09375H120.203L119.281 12.0156L115.766 24H113.375L113.828 19.625ZM112.047 7.09375L114.562 19.6094L114.797 24H111.984L107.703 7.09375H112.047ZM123.422 19.4062L125.875 7.09375H130.234L125.953 24H123.156L123.422 19.4062ZM120.594 7.09375L124.094 19.5312L124.578 24H122.172L118.656 12.0312L117.766 7.09375H120.594ZM141.641 19.3281C141.641 19.0052 141.547 18.7135 141.359 18.4531C141.172 18.1927 140.823 17.9531 140.312 17.7344C139.812 17.5052 139.089 17.2969 138.141 17.1094C137.286 16.9219 136.49 16.6875 135.75 16.4062C135.021 16.1146 134.385 15.7656 133.844 15.3594C133.312 14.9531 132.896 14.474 132.594 13.9219C132.292 13.3594 132.141 12.7188 132.141 12C132.141 11.2917 132.292 10.625 132.594 10C132.906 9.375 133.349 8.82292 133.922 8.34375C134.505 7.85417 135.214 7.47396 136.047 7.20312C136.891 6.92188 137.839 6.78125 138.891 6.78125C140.359 6.78125 141.62 7.01562 142.672 7.48438C143.734 7.95312 144.547 8.59896 145.109 9.42188C145.682 10.2344 145.969 11.1615 145.969 12.2031H141.469C141.469 11.7656 141.375 11.375 141.188 11.0312C141.01 10.6771 140.729 10.401 140.344 10.2031C139.969 9.99479 139.479 9.89062 138.875 9.89062C138.375 9.89062 137.943 9.97917 137.578 10.1562C137.214 10.3229 136.932 10.5521 136.734 10.8438C136.547 11.125 136.453 11.4375 136.453 11.7812C136.453 12.0417 136.505 12.276 136.609 12.4844C136.724 12.6823 136.906 12.8646 137.156 13.0312C137.406 13.1979 137.729 13.3542 138.125 13.5C138.531 13.6354 139.031 13.7604 139.625 13.875C140.844 14.125 141.932 14.4531 142.891 14.8594C143.849 15.2552 144.609 15.7969 145.172 16.4844C145.734 17.1615 146.016 18.0521 146.016 19.1562C146.016 19.9062 145.849 20.5938 145.516 21.2188C145.182 21.8438 144.703 22.3906 144.078 22.8594C143.453 23.3177 142.703 23.6771 141.828 23.9375C140.964 24.1875 139.99 24.3125 138.906 24.3125C137.333 24.3125 136 24.0312 134.906 23.4688C133.823 22.9062 133 22.1927 132.438 21.3281C131.885 20.4531 131.609 19.5573 131.609 18.6406H135.875C135.896 19.2552 136.052 19.75 136.344 20.125C136.646 20.5 137.026 20.7708 137.484 20.9375C137.953 21.1042 138.458 21.1875 139 21.1875C139.583 21.1875 140.068 21.1094 140.453 20.9531C140.839 20.7865 141.13 20.5677 141.328 20.2969C141.536 20.0156 141.641 19.6927 141.641 19.3281Z" fill="#E1E1E6"/>
</svg>
